<svg width="25" height="24" viewBox="0 0 25 24" fill="none" xmlns="http://www.w3.org/2000/svg">
<path d="M0 0V-0.5H-0.5V0H0ZM25 0H25.5V-0.5H25V0ZM25 24V24.5H25.5V24H25ZM0 24H-0.5V24.5H0V24ZM-0.5 0V2.5H0.5V0H-0.5ZM-0.5 5.5V10.5H0.5V5.5H-0.5ZM-0.5 13.5V18.5H0.5V13.5H-0.5ZM-0.5 21.5V24H0.5V21.5H-0.5ZM0 24.5H2.60417V23.5H0V24.5ZM5.72917 24.5H10.9375V23.5H5.72917V24.5ZM14.0625 24.5H19.2708V23.5H14.0625V24.5ZM22.3958 24.5H25V23.5H22.3958V24.5ZM25.5 24V21.5H24.5V24H25.5ZM25.5 18.5V13.5H24.5V18.5H25.5ZM25.5 10.5V5.5H24.5V10.5H25.5ZM25.5 2.5V0H24.5V2.5H25.5ZM25 -0.5H22.3958V0.5H25V-0.5ZM19.2708 -0.5H14.0625V0.5H19.2708V-0.5ZM10.9375 -0.5H5.72917V0.5H10.9375V-0.5ZM2.60417 -0.5H0V0.5H2.60417V-0.5ZM0 0V-1H-1V0H0ZM25 0H26V-1H25V0ZM25 24V25H26V24H25ZM0 24H-1V25H0V24ZM-1 0V2.5H1V0H-1ZM-1 5.5V10.5H1V5.5H-1ZM-1 13.5V18.5H1V13.5H-1ZM-1 21.5V24H1V21.5H-1ZM0 25H2.60417V23H0V25ZM5.72917 25H10.9375V23H5.72917V25ZM14.0625 25H19.2708V23H14.0625V25ZM22.3958 25H25V23H22.3958V25ZM26 24V21.5H24V24H26ZM26 18.5V13.5H24V18.5H26ZM26 10.5V5.5H24V10.5H26ZM26 2.5V0H24V2.5H26ZM25 -1H22.3958V1H25V-1ZM19.2708 -1H14.0625V1H19.2708V-1ZM10.9375 -1H5.72917V1H10.9375V-1ZM2.60417 -1H0V1H2.60417V-1Z" fill="black"/>
</svg>
